<svg width="16" height="16" viewBox="0 0 16 16" fill="none" xmlns="http://www.w3.org/2000/svg">
<g clip-path="url(#clip0_402_1157)">
<path d="M6.97314 15.2592L5.44814 14.7564C5.28814 14.7052 5.19814 14.5149 5.24314 14.3331L8.65565 0.975107C8.70065 0.793289 8.86815 0.691016 9.02815 0.742152L10.5532 1.24499C10.7132 1.29613 10.8032 1.48647 10.7582 1.66829L7.34564 15.0262C7.29814 15.2081 7.13314 15.3132 6.97314 15.2592ZM4.12314 12.0717L5.21064 10.7535C5.32564 10.6143 5.31814 10.3927 5.19064 10.2649L2.92563 8.00067L5.19064 5.73647C5.31814 5.60863 5.32814 5.38704 5.21064 5.24783L4.12314 3.92965C4.01064 3.79329 3.82064 3.78477 3.69813 3.91545L0.0956253 7.75067C-0.0318751 7.8842 -0.0318751 8.11431 0.0956253 8.24783L3.69813 12.0859C3.82064 12.2166 4.01064 12.2109 4.12314 12.0717ZM12.3032 12.0887L15.9057 8.25067C16.0332 8.11715 16.0332 7.88704 15.9057 7.75352L12.3032 3.91261C12.1832 3.78477 11.9932 3.79045 11.8782 3.92681L10.7907 5.24499C10.6757 5.3842 10.6832 5.60579 10.8107 5.73363L13.0757 8.00067L10.8107 10.2649C10.6832 10.3927 10.6732 10.6143 10.7907 10.7535L11.8782 12.0717C11.9907 12.2109 12.1807 12.2166 12.3032 12.0887Z" fill="black"/>
</g>
<defs>
<clipPath id="clip0_402_1157">
<rect width="16" height="14.5455" fill="white" transform="translate(0 0.727295)"/>
</clipPath>
</defs>
</svg>
