<svg width="49" height="49" viewBox="0 0 49 49" fill="none" xmlns="http://www.w3.org/2000/svg">
<rect y="0.175781" width="48.5" height="48.5" rx="3.75" fill="#0066FF"/>
<g clip-path="url(#clip0_402_2962)">
<path d="M30.3168 11.4258H18.1835C16.7481 11.4258 15.5835 12.5176 15.5835 13.8633V34.9883C15.5835 36.334 16.7481 37.4258 18.1835 37.4258H30.3168C31.7522 37.4258 32.9168 36.334 32.9168 34.9883V13.8633C32.9168 12.5176 31.7522 11.4258 30.3168 11.4258ZM24.2502 35.8008C23.2914 35.8008 22.5168 35.0746 22.5168 34.1758C22.5168 33.277 23.2914 32.5508 24.2502 32.5508C25.2089 32.5508 25.9835 33.277 25.9835 34.1758C25.9835 35.0746 25.2089 35.8008 24.2502 35.8008ZM30.3168 30.3164C30.3168 30.6516 30.0243 30.9258 29.6668 30.9258H18.8335C18.476 30.9258 18.1835 30.6516 18.1835 30.3164V14.4727C18.1835 14.1375 18.476 13.8633 18.8335 13.8633H29.6668C30.0243 13.8633 30.3168 14.1375 30.3168 14.4727V30.3164Z" fill="white"/>
</g>
<defs>
<clipPath id="clip0_402_2962">
<rect width="26" height="26" fill="white" transform="translate(11.25 11.4258)"/>
</clipPath>
</defs>
</svg>
