<svg width="154" height="41" viewBox="0 0 154 41" fill="none" xmlns="http://www.w3.org/2000/svg">
<path d="M55.3525 26.8799C53.958 26.8799 52.8213 26.4521 51.9424 25.5967C51.0693 24.7412 50.6328 23.6016 50.6328 22.1777V21.9316C50.6328 20.9766 50.8174 20.124 51.1865 19.374C51.5557 18.6182 52.0771 18.0381 52.751 17.6338C53.4307 17.2236 54.2041 17.0186 55.0713 17.0186C56.3721 17.0186 57.3945 17.4287 58.1387 18.249C58.8887 19.0693 59.2637 20.2324 59.2637 21.7383V22.7754H53.208C53.29 23.3965 53.5361 23.8945 53.9463 24.2695C54.3623 24.6445 54.8867 24.832 55.5195 24.832C56.498 24.832 57.2627 24.4775 57.8135 23.7686L59.0615 25.166C58.6807 25.7051 58.165 26.127 57.5146 26.4316C56.8643 26.7305 56.1436 26.8799 55.3525 26.8799ZM55.0625 19.0752C54.5586 19.0752 54.1484 19.2451 53.832 19.585C53.5215 19.9248 53.3223 20.4111 53.2344 21.0439H56.7676V20.8418C56.7559 20.2793 56.6035 19.8457 56.3105 19.541C56.0176 19.2305 55.6016 19.0752 55.0625 19.0752ZM63.0957 17.1943L63.1748 18.2578C63.8486 17.4316 64.7598 17.0186 65.9082 17.0186C67.1328 17.0186 67.9736 17.502 68.4307 18.4688C69.0986 17.502 70.0508 17.0186 71.2871 17.0186C72.3184 17.0186 73.0859 17.3203 73.5898 17.9238C74.0938 18.5215 74.3457 19.4238 74.3457 20.6309V26.7041H71.7969V20.6396C71.7969 20.1006 71.6914 19.708 71.4805 19.4619C71.2695 19.21 70.8975 19.084 70.3643 19.084C69.6025 19.084 69.0752 19.4473 68.7822 20.1738L68.791 26.7041H66.251V20.6484C66.251 20.0977 66.1426 19.6992 65.9258 19.4531C65.709 19.207 65.3398 19.084 64.8184 19.084C64.0977 19.084 63.5762 19.3828 63.2539 19.9805V26.7041H60.7139V17.1943H63.0957ZM84.875 22.0371C84.875 23.5605 84.5498 24.75 83.8994 25.6055C83.249 26.4551 82.3408 26.8799 81.1748 26.8799C80.1436 26.8799 79.3203 26.4844 78.7051 25.6934L78.5908 26.7041H76.3057V13.2041H78.8457V18.0469C79.4316 17.3613 80.2021 17.0186 81.1572 17.0186C82.3174 17.0186 83.2256 17.4463 83.8818 18.3018C84.5439 19.1514 84.875 20.3496 84.875 21.8965V22.0371ZM82.335 21.8525C82.335 20.8916 82.1826 20.1914 81.8779 19.752C81.5732 19.3066 81.1191 19.084 80.5156 19.084C79.707 19.084 79.1504 19.415 78.8457 20.0771V23.8301C79.1562 24.498 79.7188 24.832 80.5332 24.832C81.3535 24.832 81.8926 24.4277 82.1504 23.6191C82.2734 23.2324 82.335 22.6436 82.335 21.8525ZM90.8252 26.8799C89.4307 26.8799 88.2939 26.4521 87.415 25.5967C86.542 24.7412 86.1055 23.6016 86.1055 22.1777V21.9316C86.1055 20.9766 86.29 20.124 86.6592 19.374C87.0283 18.6182 87.5498 18.0381 88.2236 17.6338C88.9033 17.2236 89.6768 17.0186 90.5439 17.0186C91.8447 17.0186 92.8672 17.4287 93.6113 18.249C94.3613 19.0693 94.7363 20.2324 94.7363 21.7383V22.7754H88.6807C88.7627 23.3965 89.0088 23.8945 89.4189 24.2695C89.835 24.6445 90.3594 24.832 90.9922 24.832C91.9707 24.832 92.7354 24.4775 93.2861 23.7686L94.5342 25.166C94.1533 25.7051 93.6377 26.127 92.9873 26.4316C92.3369 26.7305 91.6162 26.8799 90.8252 26.8799ZM90.5352 19.0752C90.0312 19.0752 89.6211 19.2451 89.3047 19.585C88.9941 19.9248 88.7949 20.4111 88.707 21.0439H92.2402V20.8418C92.2285 20.2793 92.0762 19.8457 91.7832 19.541C91.4902 19.2305 91.0742 19.0752 90.5352 19.0752ZM95.791 21.8789C95.791 20.3965 96.1221 19.2158 96.7842 18.3369C97.4521 17.458 98.3633 17.0186 99.5176 17.0186C100.443 17.0186 101.208 17.3643 101.812 18.0557V13.2041H104.36V26.7041H102.066L101.943 25.6934C101.311 26.4844 100.496 26.8799 99.5 26.8799C98.3809 26.8799 97.4814 26.4404 96.8018 25.5615C96.1279 24.6768 95.791 23.4492 95.791 21.8789ZM98.3311 22.0635C98.3311 22.9541 98.4863 23.6367 98.7969 24.1113C99.1074 24.5859 99.5586 24.8232 100.15 24.8232C100.936 24.8232 101.489 24.4922 101.812 23.8301V20.0771C101.495 19.415 100.947 19.084 100.168 19.084C98.9434 19.084 98.3311 20.0771 98.3311 22.0635ZM111.479 24.0762C111.479 23.7656 111.324 23.5225 111.014 23.3467C110.709 23.165 110.217 23.0039 109.537 22.8633C107.275 22.3887 106.145 21.4277 106.145 19.9805C106.145 19.1367 106.493 18.4336 107.19 17.8711C107.894 17.3027 108.811 17.0186 109.941 17.0186C111.148 17.0186 112.112 17.3027 112.833 17.8711C113.56 18.4395 113.923 19.1777 113.923 20.0859H111.383C111.383 19.7227 111.266 19.4238 111.031 19.1895C110.797 18.9492 110.431 18.8291 109.933 18.8291C109.505 18.8291 109.174 18.9258 108.939 19.1191C108.705 19.3125 108.588 19.5586 108.588 19.8574C108.588 20.1387 108.72 20.3672 108.983 20.543C109.253 20.7129 109.704 20.8623 110.337 20.9912C110.97 21.1143 111.503 21.2549 111.937 21.4131C113.278 21.9053 113.949 22.7578 113.949 23.9707C113.949 24.8379 113.577 25.541 112.833 26.0801C112.089 26.6133 111.128 26.8799 109.95 26.8799C109.153 26.8799 108.444 26.7393 107.823 26.458C107.208 26.1709 106.725 25.7812 106.373 25.2891C106.021 24.791 105.846 24.2549 105.846 23.6807H108.254C108.277 24.1318 108.444 24.4775 108.755 24.7178C109.065 24.958 109.481 25.0781 110.003 25.0781C110.489 25.0781 110.855 24.9873 111.102 24.8057C111.354 24.6182 111.479 24.375 111.479 24.0762ZM115.197 21.8613C115.197 20.918 115.379 20.0771 115.742 19.3389C116.105 18.6006 116.627 18.0293 117.307 17.625C117.992 17.2207 118.786 17.0186 119.688 17.0186C120.972 17.0186 122.018 17.4111 122.826 18.1963C123.641 18.9814 124.095 20.0479 124.188 21.3955L124.206 22.0459C124.206 23.5049 123.799 24.6768 122.984 25.5615C122.17 26.4404 121.077 26.8799 119.706 26.8799C118.335 26.8799 117.239 26.4404 116.419 25.5615C115.604 24.6826 115.197 23.4873 115.197 21.9756V21.8613ZM117.737 22.0459C117.737 22.9482 117.907 23.6396 118.247 24.1201C118.587 24.5947 119.073 24.832 119.706 24.832C120.321 24.832 120.802 24.5977 121.147 24.1289C121.493 23.6543 121.666 22.8984 121.666 21.8613C121.666 20.9766 121.493 20.291 121.147 19.8047C120.802 19.3184 120.315 19.0752 119.688 19.0752C119.067 19.0752 118.587 19.3184 118.247 19.8047C117.907 20.2852 117.737 21.0322 117.737 22.0459ZM129.726 24.832C130.194 24.832 130.575 24.7031 130.868 24.4453C131.161 24.1875 131.313 23.8447 131.325 23.417H133.707C133.701 24.0615 133.525 24.6533 133.18 25.1924C132.834 25.7256 132.359 26.1416 131.756 26.4404C131.158 26.7334 130.496 26.8799 129.77 26.8799C128.41 26.8799 127.338 26.4492 126.553 25.5879C125.768 24.7207 125.375 23.5254 125.375 22.002V21.835C125.375 20.3701 125.765 19.2012 126.544 18.3281C127.323 17.4551 128.393 17.0186 129.752 17.0186C130.941 17.0186 131.894 17.3584 132.608 18.0381C133.329 18.7119 133.695 19.6113 133.707 20.7363H131.325C131.313 20.2441 131.161 19.8457 130.868 19.541C130.575 19.2305 130.188 19.0752 129.708 19.0752C129.116 19.0752 128.668 19.292 128.363 19.7256C128.064 20.1533 127.915 20.8506 127.915 21.8174V22.0811C127.915 23.0596 128.064 23.7627 128.363 24.1904C128.662 24.6182 129.116 24.832 129.726 24.832ZM137.838 26.7041H135.289V17.1943H137.838V26.7041ZM135.14 14.7334C135.14 14.3525 135.266 14.0391 135.518 13.793C135.775 13.5469 136.124 13.4238 136.563 13.4238C136.997 13.4238 137.343 13.5469 137.601 13.793C137.858 14.0391 137.987 14.3525 137.987 14.7334C137.987 15.1201 137.855 15.4365 137.592 15.6826C137.334 15.9287 136.991 16.0518 136.563 16.0518C136.136 16.0518 135.79 15.9287 135.526 15.6826C135.269 15.4365 135.14 15.1201 135.14 14.7334ZM145.449 26.7041C145.332 26.4756 145.247 26.1914 145.194 25.8516C144.579 26.5371 143.779 26.8799 142.795 26.8799C141.863 26.8799 141.09 26.6104 140.475 26.0713C139.865 25.5322 139.561 24.8525 139.561 24.0322C139.561 23.0244 139.933 22.251 140.677 21.7119C141.427 21.1729 142.508 20.9004 143.92 20.8945H145.089V20.3496C145.089 19.9102 144.975 19.5586 144.746 19.2949C144.523 19.0312 144.169 18.8994 143.683 18.8994C143.255 18.8994 142.918 19.002 142.672 19.207C142.432 19.4121 142.312 19.6934 142.312 20.0508H139.771C139.771 19.5 139.941 18.9902 140.281 18.5215C140.621 18.0527 141.102 17.6865 141.723 17.4229C142.344 17.1533 143.041 17.0186 143.814 17.0186C144.986 17.0186 145.915 17.3145 146.601 17.9062C147.292 18.4922 147.638 19.3184 147.638 20.3848V24.5068C147.644 25.4092 147.77 26.0918 148.016 26.5547V26.7041H145.449ZM143.349 24.9375C143.724 24.9375 144.069 24.8555 144.386 24.6914C144.702 24.5215 144.937 24.2959 145.089 24.0146V22.3799H144.14C142.868 22.3799 142.191 22.8193 142.109 23.6982L142.101 23.8477C142.101 24.1641 142.212 24.4248 142.435 24.6299C142.657 24.835 142.962 24.9375 143.349 24.9375ZM152.27 26.7041H149.721V13.2041H152.27V26.7041Z" fill="white"/>
<rect y="0.704102" width="40" height="40" rx="6.66667" fill="white"/>
<path d="M19.6591 12.2083V13.3251C19.6591 14.2862 19.4792 14.442 18.8587 14.7798L13.0772 17.7149V17.8448L18.8324 20.7281C19.4792 21.0656 19.6591 21.1957 19.6591 22.1828V23.4294C19.6591 24.2085 19.4004 24.4684 18.7293 24.1049L10.0309 19.3252C9.51534 19.0396 9.3335 18.8317 9.3335 18.2346V17.4033C9.3335 16.8058 9.51534 16.572 10.0309 16.2864L18.7293 11.5328C19.4004 11.1693 19.6591 11.4289 19.6591 12.2083Z" fill="#111827"/>
<path d="M20.5778 16.3158L29.25 21.0692C29.7917 21.3549 29.9736 21.5627 29.9736 22.16V22.9913C29.9736 23.6147 29.7917 23.8224 29.25 24.1081L20.5778 28.8616C19.8804 29.2253 19.6479 28.9656 19.6479 28.1863V27.0694C19.6479 26.1084 19.8279 25.9524 20.4484 25.6408L26.2299 22.7056V22.5498L20.4747 19.6665C19.8279 19.3549 19.6479 19.1989 19.6479 18.2118V16.965C19.6479 16.1856 19.8804 15.9262 20.5778 16.3158Z" fill="#111827"/>
</svg>
