<svg width="17" height="17" viewBox="0 0 17 17" fill="none" xmlns="http://www.w3.org/2000/svg">
<g clip-path="url(#clip0_402_3084)">
<path d="M4.19437 10.2383L3.63744 12.3174L1.60184 12.3605C0.9935 11.2321 0.648438 9.94114 0.648438 8.56926C0.648438 7.24267 0.971063 5.99167 1.54294 4.89014H1.54337L3.35562 5.22239L4.1495 7.02376C3.98334 7.50817 3.89278 8.02817 3.89278 8.56926C3.89284 9.15651 3.99922 9.71917 4.19437 10.2383Z" fill="#FBBB00"/>
<path d="M16.5086 7.07471C16.6004 7.55864 16.6483 8.05843 16.6483 8.56921C16.6483 9.14196 16.5881 9.70064 16.4734 10.2396C16.084 12.0734 15.0664 13.6747 13.6567 14.8079L13.6563 14.8075L11.3737 14.691L11.0506 12.6743C11.986 12.1257 12.717 11.2672 13.102 10.2396H8.82422V7.07471H13.1644H16.5086Z" fill="#518EF8"/>
<path d="M13.658 14.8075L13.6585 14.8079C12.2875 15.9099 10.5459 16.5692 8.65011 16.5692C5.60352 16.5692 2.95473 14.8664 1.60352 12.3605L4.19605 10.2383C4.87164 12.0413 6.61098 13.3249 8.65011 13.3249C9.52658 13.3249 10.3477 13.0879 11.0523 12.6743L13.658 14.8075Z" fill="#28B446"/>
<path d="M13.7573 2.41109L11.1656 4.53284C10.4364 4.07702 9.57441 3.81371 8.65091 3.81371C6.56563 3.81371 4.79375 5.15612 4.152 7.02384L1.54585 4.89021H1.54541C2.87685 2.32318 5.55903 0.569336 8.65091 0.569336C10.592 0.569336 12.3718 1.26077 13.7573 2.41109Z" fill="#F14336"/>
</g>
<defs>
<clipPath id="clip0_402_3084">
<rect width="16" height="16" fill="white" transform="translate(0.648438 0.569336)"/>
</clipPath>
</defs>
</svg>
