<svg width="16" height="17" viewBox="0 0 16 17" fill="none" xmlns="http://www.w3.org/2000/svg">
<g clip-path="url(#clip0_402_2078)">
<path d="M12.4437 5.43994V4.43994C12.4437 2.23432 10.5639 0.439941 8.25326 0.439941C5.9426 0.439941 4.06278 2.23432 4.06278 4.43994V5.43994H0.919922V13.9399C0.919922 15.3207 2.0925 16.4399 3.53897 16.4399H12.9675C14.414 16.4399 15.5866 15.3207 15.5866 13.9399V5.43994H12.4437ZM6.15802 4.43994C6.15802 3.33713 7.09793 2.43994 8.25326 2.43994C9.40858 2.43994 10.3485 3.33713 10.3485 4.43994V5.43994H6.15802V4.43994ZM11.3961 8.18994C10.9622 8.18994 10.6104 7.85416 10.6104 7.43994C10.6104 7.02572 10.9622 6.68994 11.3961 6.68994C11.8301 6.68994 12.1818 7.02572 12.1818 7.43994C12.1818 7.85416 11.8301 8.18994 11.3961 8.18994ZM5.1104 8.18994C4.67645 8.18994 4.32468 7.85416 4.32468 7.43994C4.32468 7.02572 4.67645 6.68994 5.1104 6.68994C5.54434 6.68994 5.89611 7.02572 5.89611 7.43994C5.89611 7.85416 5.54434 8.18994 5.1104 8.18994Z" fill="#682EE6"/>
</g>
<defs>
<clipPath id="clip0_402_2078">
<rect width="14.6667" height="16" fill="white" transform="translate(0.919922 0.439941)"/>
</clipPath>
</defs>
</svg>
