<svg width="51" height="50" viewBox="0 0 51 50" fill="none" xmlns="http://www.w3.org/2000/svg">
<g clip-path="url(#clip0_402_742)">
<path d="M39.4014 9.58233C37.5794 7.50675 36.5751 4.83854 36.576 2.07617H34.3729C34.6575 3.60345 35.2501 5.0567 36.1147 6.34724C36.9792 7.63778 38.0975 8.73853 39.4014 9.58233ZM19.0167 25.824C17.4716 25.8319 15.9734 26.3563 14.7605 27.3139C13.5475 28.2714 12.6893 29.6072 12.3223 31.1088C11.9553 32.6104 12.1006 34.1916 12.7351 35.6011C13.3695 37.0106 14.4568 38.1674 15.8239 38.8877C15.0764 37.8551 14.6288 36.636 14.5305 35.3649C14.4322 34.0938 14.687 32.8202 15.2668 31.6849C15.8466 30.5496 16.7288 29.5968 17.816 28.9317C18.9032 28.2665 20.153 27.915 21.4273 27.916C22.1201 27.9251 22.808 28.033 23.4703 28.2364V19.8352C22.7939 19.7337 22.1112 19.6804 21.4273 19.6755H21.06V26.0635C20.3941 25.8848 19.7058 25.8042 19.0167 25.824Z" fill="#FE2C55"/>
<path d="M21.0595 19.6914V17.743C20.3834 17.6359 19.7006 17.5772 19.0162 17.5674C12.3902 17.5533 6.52406 21.8491 4.53428 28.172C2.54449 34.495 4.8932 41.3781 10.3319 45.164C8.33752 43.0286 7.00355 40.3613 6.491 37.4841C5.97846 34.6069 6.30925 31.6428 7.44346 28.9495C8.57766 26.2563 10.4668 23.949 12.8828 22.3062C15.2989 20.6635 18.1385 19.7554 21.059 19.6917L21.0595 19.6914Z" fill="#25F4EE"/>
<path d="M21.4285 41.7622C25.1332 41.7572 28.1783 38.8373 28.3405 35.1346V2.09218H34.3742C34.2511 1.40173 34.1923 0.701325 34.1987 0L25.9458 0V33.0105C25.8086 36.7321 22.7562 39.68 19.0338 39.686C17.9215 39.6765 16.8273 39.4029 15.8413 38.8875C16.4803 39.7733 17.3195 40.4953 18.2905 40.9949C19.2615 41.4945 20.3367 41.7574 21.4285 41.7622ZM45.6441 13.3031V11.4665C43.4235 11.4674 41.2521 10.8118 39.4027 9.58219C41.0239 11.4678 43.2149 12.774 45.6441 13.3031Z" fill="#25F4EE"/>
<path d="M45.6395 13.3032V19.6914C41.5286 19.6834 37.5244 18.3816 34.1941 15.9703V32.7551C34.1765 41.1304 27.3849 47.9109 19.0134 47.9109C15.9042 47.9165 12.8699 46.9567 10.3291 45.164C12.401 47.3935 15.096 48.9471 18.063 49.6225C21.0301 50.2978 24.1317 50.0636 26.9638 48.9503C29.7958 47.837 32.2272 45.8963 33.9411 43.3809C35.655 40.8654 36.572 37.8919 36.5727 34.8477V18.1105C39.9142 20.5059 43.9233 21.7907 48.034 21.7836V13.5582C47.2292 13.5558 46.4268 13.4703 45.6395 13.3032Z" fill="#FE2C55"/>
<path d="M34.198 32.7551V15.9703C37.5384 18.3679 41.5482 19.6529 45.6593 19.6435V13.2555C43.2306 12.7423 41.0345 11.4532 39.402 9.58233C38.0981 8.73853 36.9798 7.63778 36.1152 6.34724C35.2507 5.0567 34.6581 3.60345 34.3735 2.07617H28.3398V35.1351C28.2811 36.5741 27.7757 37.9591 26.894 39.0975C26.0123 40.236 24.798 41.0713 23.4199 41.4876C22.0418 41.9038 20.5683 41.8802 19.2042 41.42C17.8401 40.9599 16.6532 40.086 15.8084 38.92C14.441 38.1998 13.3535 37.043 12.7189 35.6334C12.0842 34.2238 11.9389 32.6424 12.3059 31.1407C12.6729 29.6389 13.5312 28.303 14.7444 27.3455C15.9575 26.3879 17.4559 25.8636 19.0011 25.8559C19.6942 25.8621 20.3825 25.9697 21.0444 26.1754V19.7872C18.1082 19.837 15.2499 20.7404 12.818 22.3873C10.3862 24.0343 8.48578 26.3535 7.34862 29.0622C6.21146 31.771 5.88664 34.7523 6.41377 37.6425C6.94089 40.5328 8.29719 43.2071 10.3173 45.3396C12.8831 47.0732 15.9217 47.9713 19.0173 47.9109C27.3888 47.9109 34.1803 41.1304 34.198 32.7551Z" fill="black"/>
</g>
<defs>
<clipPath id="clip0_402_742">
<rect width="50" height="50" fill="white" transform="translate(0.5)"/>
</clipPath>
</defs>
</svg>
