<svg width="51" height="50" viewBox="0 0 51 50" fill="none" xmlns="http://www.w3.org/2000/svg">
<g clip-path="url(#clip0_402_753)">
<path d="M35.3997 4.80615C29.605 4.89393 25.0394 9.89846 25.0394 15.6932V17.0979C14.6792 15.2542 9.58686 12.4446 3.96772 6.56214C0.6314 13.0592 4.31892 18.5027 8.35763 21.4879C5.63583 21.4879 3.3531 21.1367 1.59712 19.5564C1.42157 19.4686 1.24592 19.5564 1.3337 19.7321C2.82626 25.1756 7.91856 29.1265 11.8695 30.2679C8.26975 30.2679 5.89915 30.7946 3.353 29.2143C3.17745 29.1265 3.00181 29.2143 3.08958 29.3898C5.02111 34.7455 8.88427 36.4138 14.5034 36.4138C11.6938 38.5209 7.91856 40.6281 0.806852 40.8037C0.54343 40.8037 0.367881 41.1549 0.631303 41.3304C3.26523 43.5254 9.76241 45.1936 18.8934 45.1936C33.907 45.1936 46.111 31.8482 46.111 15.342V14.464C48.4816 13.5861 49.7985 11.4789 50.5009 9.37171C50.5009 9.28393 50.4131 9.19616 50.3253 9.19616L45.3207 10.9521C45.233 10.9521 45.1452 10.7766 45.233 10.6887C47.3404 9.02051 48.9207 6.91333 49.6231 4.89393C49.6231 4.89393 49.5353 4.80615 49.4474 4.80615C47.0768 5.77197 44.7941 6.73768 43.0381 7.26453C42.7747 7.3523 42.4235 7.3523 42.1602 7.17675C41.0188 6.56214 37.5946 4.80615 35.3997 4.80615Z" fill="#1DA1F2"/>
</g>
<defs>
<clipPath id="clip0_402_753">
<rect width="50" height="50" fill="white" transform="translate(0.5)"/>
</clipPath>
</defs>
</svg>
