<svg width="16" height="16" viewBox="0 0 16 16" fill="none" xmlns="http://www.w3.org/2000/svg">
<path d="M14.2217 9.79501C14.2217 9.79501 12.4439 12.4271 12.4439 13.4314C12.4439 14.4356 13.2401 15.2496 14.2217 15.2496C15.2034 15.2496 15.9995 14.4356 15.9995 13.4314C15.9995 12.4271 14.2217 9.79501 14.2217 9.79501ZM13.9614 6.87058L8.19226 0.970295C8.01864 0.792738 7.79114 0.704102 7.56364 0.704102C7.33614 0.704102 7.10864 0.792738 6.93531 0.970295L4.66918 3.28791L2.27529 0.839329C2.10167 0.661772 1.82028 0.661772 1.64695 0.839329L1.01861 1.48194C0.845279 1.6595 0.845279 1.94728 1.01861 2.12456L3.41279 4.57285L0.780557 7.2649C-0.260837 8.32967 -0.260837 10.0564 0.780557 11.1214L4.03585 14.4507C4.55641 14.9831 5.23891 15.2496 5.92113 15.2496C6.60364 15.2496 7.28586 14.9834 7.80642 14.4507L13.9612 8.15609C14.3084 7.80098 14.3084 7.22569 13.9614 6.87058ZM10.7331 8.88677H1.83084C1.86862 8.77768 1.93001 8.66007 2.03723 8.55069L2.40251 8.17711L4.66946 5.85865L6.29725 7.52342C6.64419 7.87825 7.20697 7.87825 7.55392 7.52342C7.90087 7.16859 7.90087 6.59302 7.55392 6.23819L5.92613 4.57342L7.56364 2.8987L12.0759 7.51348L10.7331 8.88677Z" fill="#0066FF"/>
</svg>
