<svg width="17" height="17" viewBox="0 0 17 17" fill="none" xmlns="http://www.w3.org/2000/svg">
<path d="M15.9075 1.03706C15.8874 0.943544 15.8407 0.857818 15.7731 0.790184C15.7055 0.722551 15.6197 0.67589 15.5262 0.655811C14.52 0.440186 13.7328 0.440186 12.9484 0.440186C9.72341 0.440186 7.78903 2.16519 6.3456 4.44019H3.08935C2.81125 4.44042 2.5387 4.51796 2.30213 4.66414C2.06556 4.81032 1.87428 5.01939 1.74966 5.268L0.205284 8.3555C0.14825 8.46987 0.121391 8.59692 0.127255 8.7246C0.133119 8.85227 0.171512 8.97632 0.23879 9.08499C0.306068 9.19366 0.399998 9.28333 0.511668 9.34549C0.623337 9.40765 0.74904 9.44025 0.876846 9.44019H4.11966L3.41747 10.1424C3.22998 10.3299 3.12465 10.5842 3.12465 10.8494C3.12465 11.1146 3.22998 11.3689 3.41747 11.5564L5.0081 13.1474C5.10096 13.2403 5.21121 13.3139 5.33255 13.3642C5.45389 13.4145 5.58394 13.4403 5.71528 13.4403C5.84662 13.4403 5.97668 13.4145 6.09802 13.3642C6.21936 13.3139 6.32961 13.2403 6.42247 13.1474L7.12466 12.4452V15.6902C7.12462 15.8179 7.15722 15.9436 7.21937 16.0552C7.28152 16.1669 7.37115 16.2608 7.47977 16.328C7.58839 16.3953 7.7124 16.4337 7.84002 16.4396C7.96765 16.4455 8.09467 16.4187 8.20903 16.3617L11.2934 14.8183C11.5424 14.6939 11.7518 14.5026 11.8981 14.2658C12.0444 14.0289 12.1218 13.756 12.1215 13.4777V10.2149C14.39 8.768 16.1215 6.82737 16.1215 3.61831C16.1247 2.83081 16.1247 2.04331 15.9075 1.03706ZM12.1247 5.69019C11.8774 5.69019 11.6358 5.61687 11.4302 5.47952C11.2246 5.34217 11.0644 5.14695 10.9698 4.91854C10.8752 4.69013 10.8504 4.4388 10.8987 4.19632C10.9469 3.95385 11.066 3.73112 11.2408 3.5563C11.4156 3.38149 11.6383 3.26244 11.8808 3.2142C12.1233 3.16597 12.3746 3.19073 12.603 3.28534C12.8314 3.37995 13.0266 3.54016 13.164 3.74572C13.3013 3.95128 13.3747 4.19296 13.3747 4.44019C13.3747 4.77171 13.243 5.08965 13.0085 5.32407C12.7741 5.55849 12.4562 5.69019 12.1247 5.69019Z" fill="#682EE6"/>
</svg>
