<svg width="16" height="14" viewBox="0 0 16 14" fill="none" xmlns="http://www.w3.org/2000/svg">
<path d="M9.25049 -0.00244141H15.2505C15.6647 -0.00244141 16.0005 0.33334 16.0005 0.747559V5.74756C16.0005 6.16178 15.6647 6.49756 15.2505 6.49756H9.25049C8.83627 6.49756 8.50049 6.16178 8.50049 5.74756V0.747559C8.50049 0.33334 8.83627 -0.00244141 9.25049 -0.00244141ZM6.75049 -0.00244141H0.750488C0.33627 -0.00244141 0.000488281 0.33334 0.000488281 0.747559V5.74756C0.000488281 6.16178 0.33627 6.49756 0.750488 6.49756H6.75049C7.16471 6.49756 7.50049 6.16178 7.50049 5.74756V0.747559C7.50049 0.33334 7.16471 -0.00244141 6.75049 -0.00244141ZM0.000488281 8.24756V13.2476C0.000488281 13.6618 0.33627 13.9976 0.750488 13.9976H6.75049C7.16471 13.9976 7.50049 13.6618 7.50049 13.2476V8.24756C7.50049 7.83334 7.16471 7.49756 6.75049 7.49756H0.750488C0.33627 7.49756 0.000488281 7.83334 0.000488281 8.24756ZM9.25049 13.9976H15.2505C15.6647 13.9976 16.0005 13.6618 16.0005 13.2476V8.24756C16.0005 7.83334 15.6647 7.49756 15.2505 7.49756H9.25049C8.83627 7.49756 8.50049 7.83334 8.50049 8.24756V13.2476C8.50049 13.6618 8.83627 13.9976 9.25049 13.9976Z" fill="black"/>
</svg>
